# xmcd
#
# Track frame offsets: 
#        150
#        16675
#        30943
#        44270
#        63848
#        80473
#        98935
#        121698
#        137895
#
# Disc length: 2085 seconds
#
# Revision: 1
# Processed by: cddbd v1.5.2PL0 Copyright (c) Steve Scherf et al.
# Submitted via: ExactAudioCopyFreeDBPlugin 1.0
#
DISCID=62082309
DTITLE=Johnny Winter - Nothin' But The Blues (US 886972435022)
DYEAR=1977
DGENRE=Blues
TTITLE0=Tired of Tryin'
TTITLE1=TV Mama
TTITLE2=Sweet Love and Evil Women
TTITLE3=Everybody's Blues
TTITLE4=Drinkin' Blues
TTITLE5=Mad Blues
TTITLE6=It Was Rainin'
TTITLE7=Bladie Mae
TTITLE8=Walking Thru The Park
EXTD=
EXTT0=
EXTT1=
EXTT2=
EXTT3=
EXTT4=
EXTT5=
EXTT6=
EXTT7=
EXTT8=
PLAYORDER=
